<svg xmlns="http://www.w3.org/2000/svg" viewBox="0 0 1200 960" width="100%" height="100%">
  <rect width="1200" height="960" fill="#0b0f19"/>
  <defs>
    <linearGradient id="brazilGrad" x1="0%" y1="0%" x2="100%" y2="100%">
      <stop offset="0%" stop-color="#15803d" />
      <stop offset="100%" stop-color="#16a34a" />
    </linearGradient>
    <filter id="shadow" x="-10%" y="-10%" width="120%" height="120%">
      <feDropShadow dx="0" dy="4" stdDeviation="4" flood-color="#000" flood-opacity="0.25"/>
    </filter>
  </defs>
  <style>
    .team-text { font-family: "Plus Jakarta Sans", "Inter", sans-serif; font-size: 13px; font-weight: 700; fill: #f8fafc; }
    .lbl-text { font-family: "Plus Jakarta Sans", "Inter", sans-serif; font-size: 11px; font-weight: 500; fill: #94a3b8; }
    .val-text { font-family: "Plus Jakarta Sans", "Inter", sans-serif; font-size: 11px; font-weight: 700; }
    .stage-title { font-family: "Plus Jakarta Sans", "Inter", sans-serif; font-size: 16px; font-weight: 800; fill: #94a3b8; letter-spacing: 1px; }
    .brazil-title { font-family: "Plus Jakarta Sans", "Inter", sans-serif; font-size: 18px; font-weight: 800; fill: #ffffff; }
    .connection-line { fill: none; stroke: #475569; stroke-width: 2; }
    .legend-title { font-family: "Plus Jakarta Sans", "Inter", sans-serif; font-size: 14px; font-weight: 800; fill: #f8fafc; }
    .legend-text { font-family: "Plus Jakarta Sans", "Inter", sans-serif; font-size: 12px; fill: #94a3b8; }
  </style>
  <text x="110" y="45" text-anchor="middle" class="stage-title">ROOT</text>
  <text x="340" y="45" text-anchor="middle" class="stage-title">ROUND OF 16</text>
  <text x="580" y="45" text-anchor="middle" class="stage-title">QUARTER-FINALS</text>
  <text x="820" y="45" text-anchor="middle" class="stage-title">SEMI-FINALS</text>
  <text x="1060" y="45" text-anchor="middle" class="stage-title">POTENTIAL FINAL</text>
  <!-- Brazil Card -->
  <rect x="40" y="450" width="140" height="60" rx="8" fill="url(#brazilGrad)" stroke="#eab308" stroke-width="2" filter="url(#shadow)"/>
  <text x="110" y="486" text-anchor="middle" class="brazil-title">BRAZIL</text>
  <g filter="url(#shadow)">
    <rect x="970" y="58" width="180" height="44" rx="6" fill="#1e293b" stroke="#334155" stroke-width="1"/>
    <rect x="970" y="58" width="4" height="44" rx="2" fill="#22c55e"/>
    <text x="982" y="76" class="team-text">Canada</text>
    <text x="982" y="94" class="lbl-text">Reach:</text>
    <text x="1020" y="94" fill="#f8fafc" class="val-text">4.2%</text>
    <text x="1062" y="94" class="lbl-text">vs BR:</text>
    <text x="1094" y="94" fill="#22c55e" class="val-text">67.2%</text>
  </g>
  <g filter="url(#shadow)">
    <rect x="970" y="220" width="180" height="44" rx="6" fill="#1e293b" stroke="#334155" stroke-width="1"/>
    <rect x="970" y="220" width="4" height="44" rx="2" fill="#22c55e"/>
    <text x="982" y="238" class="team-text">Morocco</text>
    <text x="982" y="256" class="lbl-text">Reach:</text>
    <text x="1020" y="256" fill="#f8fafc" class="val-text">9.5%</text>
    <text x="1062" y="256" class="lbl-text">vs BR:</text>
    <text x="1094" y="256" fill="#22c55e" class="val-text">59.5%</text>
  </g>
  <g filter="url(#shadow)">
    <rect x="970" y="328" width="180" height="44" rx="6" fill="#1e293b" stroke="#334155" stroke-width="1"/>
    <rect x="970" y="328" width="4" height="44" rx="2" fill="#22c55e"/>
    <text x="982" y="346" class="team-text">Paraguay</text>
    <text x="982" y="364" class="lbl-text">Reach:</text>
    <text x="1020" y="364" fill="#f8fafc" class="val-text">3.7%</text>
    <text x="1062" y="364" class="lbl-text">vs BR:</text>
    <text x="1094" y="364" fill="#22c55e" class="val-text">67.0%</text>
  </g>
  <g filter="url(#shadow)">
    <rect x="970" y="382" width="180" height="44" rx="6" fill="#1e293b" stroke="#334155" stroke-width="1"/>
    <rect x="970" y="382" width="4" height="44" rx="2" fill="#f43f5e"/>
    <text x="982" y="400" class="team-text">France</text>
    <text x="982" y="418" class="lbl-text">Reach:</text>
    <text x="1020" y="418" fill="#f8fafc" class="val-text">30.5%</text>
    <text x="1062" y="418" class="lbl-text">vs BR:</text>
    <text x="1094" y="418" fill="#f43f5e" class="val-text">41.5%</text>
  </g>
  <g filter="url(#shadow)">
    <rect x="970" y="490" width="180" height="44" rx="6" fill="#1e293b" stroke="#334155" stroke-width="1"/>
    <rect x="970" y="490" width="4" height="44" rx="2" fill="#22c55e"/>
    <text x="982" y="508" class="team-text">Portugal</text>
    <text x="982" y="526" class="lbl-text">Reach:</text>
    <text x="1020" y="526" fill="#f8fafc" class="val-text">7.8%</text>
    <text x="1062" y="526" class="lbl-text">vs BR:</text>
    <text x="1094" y="526" fill="#22c55e" class="val-text">50.3%</text>
  </g>
  <g filter="url(#shadow)">
    <rect x="970" y="544" width="180" height="44" rx="6" fill="#1e293b" stroke="#334155" stroke-width="1"/>
    <rect x="970" y="544" width="4" height="44" rx="2" fill="#22c55e"/>
    <text x="982" y="562" class="team-text">Croatia</text>
    <text x="982" y="580" class="lbl-text">Reach:</text>
    <text x="1020" y="580" fill="#f8fafc" class="val-text">3.4%</text>
    <text x="1062" y="580" class="lbl-text">vs BR:</text>
    <text x="1094" y="580" fill="#22c55e" class="val-text">57.8%</text>
  </g>
  <g filter="url(#shadow)">
    <rect x="970" y="598" width="180" height="44" rx="6" fill="#1e293b" stroke="#334155" stroke-width="1"/>
    <rect x="970" y="598" width="4" height="44" rx="2" fill="#f43f5e"/>
    <text x="982" y="616" class="team-text">Spain</text>
    <text x="982" y="634" class="lbl-text">Reach:</text>
    <text x="1020" y="634" fill="#f8fafc" class="val-text">26.8%</text>
    <text x="1062" y="634" class="lbl-text">vs BR:</text>
    <text x="1094" y="634" fill="#f43f5e" class="val-text">34.5%</text>
  </g>
  <g filter="url(#shadow)">
    <rect x="970" y="652" width="180" height="44" rx="6" fill="#1e293b" stroke="#334155" stroke-width="1"/>
    <rect x="970" y="652" width="4" height="44" rx="2" fill="#22c55e"/>
    <text x="982" y="670" class="team-text">Austria</text>
    <text x="982" y="688" class="lbl-text">Reach:</text>
    <text x="1020" y="688" fill="#f8fafc" class="val-text">1.7%</text>
    <text x="1062" y="688" class="lbl-text">vs BR:</text>
    <text x="1094" y="688" fill="#22c55e" class="val-text">63.6%</text>
  </g>
  <g filter="url(#shadow)">
    <rect x="970" y="706" width="180" height="44" rx="6" fill="#1e293b" stroke="#334155" stroke-width="1"/>
    <rect x="970" y="706" width="4" height="44" rx="2" fill="#22c55e"/>
    <text x="982" y="724" class="team-text">USA</text>
    <text x="982" y="742" class="lbl-text">Reach:</text>
    <text x="1020" y="742" fill="#f8fafc" class="val-text">2.8%</text>
    <text x="1062" y="742" class="lbl-text">vs BR:</text>
    <text x="1094" y="742" fill="#22c55e" class="val-text">66.4%</text>
  </g>
  <g filter="url(#shadow)">
    <rect x="970" y="760" width="180" height="44" rx="6" fill="#1e293b" stroke="#334155" stroke-width="1"/>
    <rect x="970" y="760" width="4" height="44" rx="2" fill="#22c55e"/>
    <text x="982" y="778" class="team-text">Bosnia and Herzegovina</text>
    <text x="982" y="796" class="lbl-text">Reach:</text>
    <text x="1020" y="796" fill="#f8fafc" class="val-text">0.6%</text>
    <text x="1062" y="796" class="lbl-text">vs BR:</text>
    <text x="1094" y="796" fill="#22c55e" class="val-text">77.5%</text>
  </g>
  <g filter="url(#shadow)">
    <rect x="970" y="814" width="180" height="44" rx="6" fill="#1e293b" stroke="#334155" stroke-width="1"/>
    <rect x="970" y="814" width="4" height="44" rx="2" fill="#22c55e"/>
    <text x="982" y="832" class="team-text">Belgium</text>
    <text x="982" y="850" class="lbl-text">Reach:</text>
    <text x="1020" y="850" fill="#f8fafc" class="val-text">5.7%</text>
    <text x="1062" y="850" class="lbl-text">vs BR:</text>
    <text x="1094" y="850" fill="#22c55e" class="val-text">58.4%</text>
  </g>
  <g filter="url(#shadow)">
    <rect x="970" y="868" width="180" height="44" rx="6" fill="#1e293b" stroke="#334155" stroke-width="1"/>
    <rect x="970" y="868" width="4" height="44" rx="2" fill="#22c55e"/>
    <text x="982" y="886" class="team-text">Senegal</text>
    <text x="982" y="904" class="lbl-text">Reach:</text>
    <text x="1020" y="904" fill="#f8fafc" class="val-text">3.4%</text>
    <text x="1062" y="904" class="lbl-text">vs BR:</text>
    <text x="1094" y="904" fill="#22c55e" class="val-text">63.4%</text>
  </g>
  <g filter="url(#shadow)">
    <rect x="730" y="85.0" width="180" height="44" rx="6" fill="#1e293b" stroke="#334155" stroke-width="1"/>
    <rect x="730" y="85.0" width="4" height="44" rx="2" fill="#f43f5e"/>
    <text x="742" y="103.0" class="team-text">Argentina</text>
    <text x="742" y="121.0" class="lbl-text">Reach:</text>
    <text x="780" y="121.0" fill="#f8fafc" class="val-text">42.6%</text>
    <text x="822" y="121.0" class="lbl-text">vs BR:</text>
    <text x="854" y="121.0" fill="#f43f5e" class="val-text">39.0%</text>
  </g>
  <g filter="url(#shadow)">
    <rect x="730" y="193.0" width="180" height="44" rx="6" fill="#1e293b" stroke="#334155" stroke-width="1"/>
    <rect x="730" y="193.0" width="4" height="44" rx="2" fill="#22c55e"/>
    <text x="742" y="211.0" class="team-text">Cape Verde</text>
    <text x="742" y="229.0" class="lbl-text">Reach:</text>
    <text x="780" y="229.0" fill="#f8fafc" class="val-text">1.9%</text>
    <text x="822" y="229.0" class="lbl-text">vs BR:</text>
    <text x="854" y="229.0" fill="#22c55e" class="val-text">76.7%</text>
  </g>
  <g filter="url(#shadow)">
    <rect x="730" y="301.0" width="180" height="44" rx="6" fill="#1e293b" stroke="#334155" stroke-width="1"/>
    <rect x="730" y="301.0" width="4" height="44" rx="2" fill="#22c55e"/>
    <text x="742" y="319.0" class="team-text">Australia</text>
    <text x="742" y="337.0" class="lbl-text">Reach:</text>
    <text x="780" y="337.0" fill="#f8fafc" class="val-text">6.4%</text>
    <text x="822" y="337.0" class="lbl-text">vs BR:</text>
    <text x="854" y="337.0" fill="#22c55e" class="val-text">65.4%</text>
  </g>
  <g filter="url(#shadow)">
    <rect x="730" y="409.0" width="180" height="44" rx="6" fill="#1e293b" stroke="#334155" stroke-width="1"/>
    <rect x="730" y="409.0" width="4" height="44" rx="2" fill="#22c55e"/>
    <text x="742" y="427.0" class="team-text">Egypt</text>
    <text x="742" y="445.0" class="lbl-text">Reach:</text>
    <text x="780" y="445.0" fill="#f8fafc" class="val-text">5.8%</text>
    <text x="822" y="445.0" class="lbl-text">vs BR:</text>
    <text x="854" y="445.0" fill="#22c55e" class="val-text">66.4%</text>
  </g>
  <g filter="url(#shadow)">
    <rect x="730" y="517.0" width="180" height="44" rx="6" fill="#1e293b" stroke="#334155" stroke-width="1"/>
    <rect x="730" y="517.0" width="4" height="44" rx="2" fill="#22c55e"/>
    <text x="742" y="535.0" class="team-text">Switzerland</text>
    <text x="742" y="553.0" class="lbl-text">Reach:</text>
    <text x="780" y="553.0" fill="#f8fafc" class="val-text">14.1%</text>
    <text x="822" y="553.0" class="lbl-text">vs BR:</text>
    <text x="854" y="553.0" fill="#22c55e" class="val-text">57.0%</text>
  </g>
  <g filter="url(#shadow)">
    <rect x="730" y="625.0" width="180" height="44" rx="6" fill="#1e293b" stroke="#334155" stroke-width="1"/>
    <rect x="730" y="625.0" width="4" height="44" rx="2" fill="#22c55e"/>
    <text x="742" y="643.0" class="team-text">Algeria</text>
    <text x="742" y="661.0" class="lbl-text">Reach:</text>
    <text x="780" y="661.0" fill="#f8fafc" class="val-text">4.4%</text>
    <text x="822" y="661.0" class="lbl-text">vs BR:</text>
    <text x="854" y="661.0" fill="#22c55e" class="val-text">68.6%</text>
  </g>
  <g filter="url(#shadow)">
    <rect x="730" y="733.0" width="180" height="44" rx="6" fill="#1e293b" stroke="#334155" stroke-width="1"/>
    <rect x="730" y="733.0" width="4" height="44" rx="2" fill="#22c55e"/>
    <text x="742" y="751.0" class="team-text">Colombia</text>
    <text x="742" y="769.0" class="lbl-text">Reach:</text>
    <text x="780" y="769.0" fill="#f8fafc" class="val-text">23.2%</text>
    <text x="822" y="769.0" class="lbl-text">vs BR:</text>
    <text x="854" y="769.0" fill="#22c55e" class="val-text">51.2%</text>
  </g>
  <g filter="url(#shadow)">
    <rect x="730" y="841.0" width="180" height="44" rx="6" fill="#1e293b" stroke="#334155" stroke-width="1"/>
    <rect x="730" y="841.0" width="4" height="44" rx="2" fill="#22c55e"/>
    <text x="742" y="859.0" class="team-text">Ghana</text>
    <text x="742" y="877.0" class="lbl-text">Reach:</text>
    <text x="780" y="877.0" fill="#f8fafc" class="val-text">1.6%</text>
    <text x="822" y="877.0" class="lbl-text">vs BR:</text>
    <text x="854" y="877.0" fill="#22c55e" class="val-text">77.5%</text>
  </g>
  <g filter="url(#shadow)">
    <rect x="490" y="139.0" width="180" height="44" rx="6" fill="#1e293b" stroke="#334155" stroke-width="1"/>
    <rect x="490" y="139.0" width="4" height="44" rx="2" fill="#22c55e"/>
    <text x="502" y="157.0" class="team-text">Mexico</text>
    <text x="502" y="175.0" class="lbl-text">Reach:</text>
    <text x="540" y="175.0" fill="#f8fafc" class="val-text">27.2%</text>
    <text x="582" y="175.0" class="lbl-text">vs BR:</text>
    <text x="614" y="175.0" fill="#22c55e" class="val-text">52.6%</text>
  </g>
  <g filter="url(#shadow)">
    <rect x="490" y="355.0" width="180" height="44" rx="6" fill="#1e293b" stroke="#334155" stroke-width="1"/>
    <rect x="490" y="355.0" width="4" height="44" rx="2" fill="#22c55e"/>
    <text x="502" y="373.0" class="team-text">Ecuador</text>
    <text x="502" y="391.0" class="lbl-text">Reach:</text>
    <text x="540" y="391.0" fill="#f8fafc" class="val-text">18.8%</text>
    <text x="582" y="391.0" class="lbl-text">vs BR:</text>
    <text x="614" y="391.0" fill="#22c55e" class="val-text">58.1%</text>
  </g>
  <g filter="url(#shadow)">
    <rect x="490" y="571.0" width="180" height="44" rx="6" fill="#1e293b" stroke="#334155" stroke-width="1"/>
    <rect x="490" y="571.0" width="4" height="44" rx="2" fill="#f43f5e"/>
    <text x="502" y="589.0" class="team-text">England</text>
    <text x="502" y="607.0" class="lbl-text">Reach:</text>
    <text x="540" y="607.0" fill="#f8fafc" class="val-text">44.8%</text>
    <text x="582" y="607.0" class="lbl-text">vs BR:</text>
    <text x="614" y="607.0" fill="#f43f5e" class="val-text">45.4%</text>
  </g>
  <g filter="url(#shadow)">
    <rect x="490" y="787.0" width="180" height="44" rx="6" fill="#1e293b" stroke="#334155" stroke-width="1"/>
    <rect x="490" y="787.0" width="4" height="44" rx="2" fill="#22c55e"/>
    <text x="502" y="805.0" class="team-text">DR Congo</text>
    <text x="502" y="823.0" class="lbl-text">Reach:</text>
    <text x="540" y="823.0" fill="#f8fafc" class="val-text">9.2%</text>
    <text x="582" y="823.0" class="lbl-text">vs BR:</text>
    <text x="614" y="823.0" fill="#22c55e" class="val-text">70.3%</text>
  </g>
  <g filter="url(#shadow)">
    <rect x="250" y="679.0" width="180" height="44" rx="6" fill="#1e293b" stroke="#334155" stroke-width="1"/>
    <rect x="250" y="679.0" width="4" height="44" rx="2" fill="#22c55e"/>
    <text x="262" y="697.0" class="team-text">Norway</text>
    <text x="262" y="715.0" class="lbl-text">Reach:</text>
    <text x="300" y="715.0" fill="#f8fafc" class="val-text">100.0%</text>
    <text x="342" y="715.0" class="lbl-text">vs BR:</text>
    <text x="374" y="715.0" fill="#22c55e" class="val-text">56.6%</text>
  </g>
  <!-- Connections: Brazil to R16 -->
  <path d="M 180 480 L 230 480" class="connection-line"/>
  <path d="M 230 269.0 L 230 701.0" class="connection-line"/>
  <path d="M 230 701.0 L 250 701.0" class="connection-line"/>
  <!-- Connections: R16 to QF -->
  <path d="M 430 701.0 L 470 701.0" class="connection-line"/>
  <path d="M 470 593.0 L 470 809.0" class="connection-line"/>
  <path d="M 470 593.0 L 490 593.0" class="connection-line"/>
  <path d="M 470 809.0 L 490 809.0" class="connection-line"/>
  <!-- Connections: QF to SF -->
  <path d="M 670 161.0 L 710 161.0" class="connection-line"/>
  <path d="M 710 107.0 L 710 215.0" class="connection-line"/>
  <path d="M 710 107.0 L 730 107.0" class="connection-line"/>
  <path d="M 710 215.0 L 730 215.0" class="connection-line"/>
  <path d="M 670 377.0 L 710 377.0" class="connection-line"/>
  <path d="M 710 323.0 L 710 431.0" class="connection-line"/>
  <path d="M 710 323.0 L 730 323.0" class="connection-line"/>
  <path d="M 710 431.0 L 730 431.0" class="connection-line"/>
  <path d="M 670 593.0 L 710 593.0" class="connection-line"/>
  <path d="M 710 539.0 L 710 647.0" class="connection-line"/>
  <path d="M 710 539.0 L 730 539.0" class="connection-line"/>
  <path d="M 710 647.0 L 730 647.0" class="connection-line"/>
  <path d="M 670 809.0 L 710 809.0" class="connection-line"/>
  <path d="M 710 755.0 L 710 863.0" class="connection-line"/>
  <path d="M 710 755.0 L 730 755.0" class="connection-line"/>
  <path d="M 710 863.0 L 730 863.0" class="connection-line"/>
  <!-- Connections: SF to Final -->
  <path d="M 910 107.0 L 950 107.0" class="connection-line"/>
  <path d="M 950 107.0 L 950 80" class="connection-line"/>
  <path d="M 950 80 L 970 80" class="connection-line"/>
  <path d="M 910 215.0 L 950 215.0" class="connection-line"/>
  <path d="M 950 215.0 L 950 242" class="connection-line"/>
  <path d="M 950 242 L 970 242" class="connection-line"/>
  <path d="M 910 323.0 L 950 323.0" class="connection-line"/>
  <path d="M 950 323.0 L 950 350" class="connection-line"/>
  <path d="M 950 350 L 970 350" class="connection-line"/>
  <path d="M 910 431.0 L 950 431.0" class="connection-line"/>
  <path d="M 950 431.0 L 950 404" class="connection-line"/>
  <path d="M 950 404 L 970 404" class="connection-line"/>
  <path d="M 910 539.0 L 950 539.0" class="connection-line"/>
  <path d="M 950 512 L 950 566" class="connection-line"/>
  <path d="M 950 512 L 970 512" class="connection-line"/>
  <path d="M 950 566 L 970 566" class="connection-line"/>
  <path d="M 910 647.0 L 950 647.0" class="connection-line"/>
  <path d="M 950 620 L 950 674" class="connection-line"/>
  <path d="M 950 620 L 970 620" class="connection-line"/>
  <path d="M 950 674 L 970 674" class="connection-line"/>
  <path d="M 910 755.0 L 950 755.0" class="connection-line"/>
  <path d="M 950 728 L 950 782" class="connection-line"/>
  <path d="M 950 728 L 970 728" class="connection-line"/>
  <path d="M 950 782 L 970 782" class="connection-line"/>
  <path d="M 910 863.0 L 950 863.0" class="connection-line"/>
  <path d="M 950 836 L 950 890" class="connection-line"/>
  <path d="M 950 836 L 970 836" class="connection-line"/>
  <path d="M 950 890 L 970 890" class="connection-line"/>
  <!-- Legend Box -->
  <g filter="url(#shadow)">
    <rect x="40" y="620" width="180" height="220" rx="8" fill="#1e293b" stroke="#334155" stroke-width="1.5"/>
    <text x="55" y="650" class="legend-title">DIAGRAM LEGEND</text>
    <line x1="55" y1="662" x2="205" y2="662" stroke="#334155" stroke-width="1"/>
    <text x="55" y="685" class="team-text">Reach:</text>
    <text x="55" y="702" class="legend-text">Probability of the opponent</text>
    <text x="55" y="718" class="legend-text">reaching this stage of the</text>
    <text x="55" y="734" class="legend-text">tournament (from 100k MC</text>
    <text x="55" y="750" class="legend-text">simulations).</text>
    <text x="55" y="775" class="team-text">vs BR:</text>
    <text x="55" y="792" class="legend-text">Brazil's win probability in</text>
    <text x="55" y="808" class="legend-text">a head-to-head matchup</text>
    <text x="55" y="824" class="legend-text">(from 5k MCMC simulations).</text>
  </g>
</svg>