<svg xmlns="http://www.w3.org/2000/svg" viewBox="0 0 1200 800" width="100%" height="100%">
  <rect width="1200" height="800" fill="#0b0f19"/>
  <defs>
    <linearGradient id="brazilGrad" x1="0%" y1="0%" x2="100%" y2="100%">
      <stop offset="0%" stop-color="#15803d" />
      <stop offset="100%" stop-color="#16a34a" />
    </linearGradient>
    <filter id="shadow" x="-10%" y="-10%" width="120%" height="120%">
      <feDropShadow dx="0" dy="4" stdDeviation="4" flood-color="#000" flood-opacity="0.25"/>
    </filter>
  </defs>
  <style>
    .team-text { font-family: "Plus Jakarta Sans", "Inter", sans-serif; font-size: 13px; font-weight: 700; fill: #f8fafc; }
    .lbl-text { font-family: "Plus Jakarta Sans", "Inter", sans-serif; font-size: 11px; font-weight: 500; fill: #94a3b8; }
    .val-text { font-family: "Plus Jakarta Sans", "Inter", sans-serif; font-size: 11px; font-weight: 700; }
    .stage-title { font-family: "Plus Jakarta Sans", "Inter", sans-serif; font-size: 16px; font-weight: 800; fill: #94a3b8; letter-spacing: 1px; }
    .brazil-title { font-family: "Plus Jakarta Sans", "Inter", sans-serif; font-size: 18px; font-weight: 800; fill: #ffffff; }
    .legend-title { font-family: "Plus Jakarta Sans", "Inter", sans-serif; font-size: 14px; font-weight: 800; fill: #f8fafc; }
    .legend-text { font-family: "Plus Jakarta Sans", "Inter", sans-serif; font-size: 12px; fill: #94a3b8; }
  </style>
  <text x="110" y="45" text-anchor="middle" class="stage-title">ROOT</text>
  <text x="340" y="45" text-anchor="middle" class="stage-title">ROUND OF 16</text>
  <text x="580" y="45" text-anchor="middle" class="stage-title">QUARTER-FINALS</text>
  <text x="820" y="45" text-anchor="middle" class="stage-title">SEMI-FINALS</text>
  <text x="1060" y="45" text-anchor="middle" class="stage-title">POTENTIAL FINAL</text>
  <!-- Brazil Card -->
  <rect x="40" y="370" width="140" height="60" rx="8" fill="url(#brazilGrad)" stroke="#eab308" stroke-width="2" filter="url(#shadow)"/>
  <text x="110" y="406" text-anchor="middle" class="brazil-title">BRAZIL</text>
  <g filter="url(#shadow)">
    <rect x="970" y="70.0" width="180" height="44" rx="6" fill="#1e293b" stroke="#334155" stroke-width="1"/>
    <rect x="970" y="70.0" width="4" height="44" rx="2" fill="#22c55e"/>
    <text x="982" y="88.0" class="team-text">Austria</text>
    <text x="982" y="106.0" class="lbl-text">Reach:</text>
    <text x="1020" y="106.0" fill="#f8fafc" class="val-text">1.7%</text>
    <text x="1062" y="106.0" class="lbl-text">vs BR:</text>
    <text x="1094" y="106.0" fill="#22c55e" class="val-text">63.6%</text>
  </g>
  <g filter="url(#shadow)">
    <rect x="970" y="126.0" width="180" height="44" rx="6" fill="#1e293b" stroke="#334155" stroke-width="1"/>
    <rect x="970" y="126.0" width="4" height="44" rx="2" fill="#22c55e"/>
    <text x="982" y="144.0" class="team-text">Belgium</text>
    <text x="982" y="162.0" class="lbl-text">Reach:</text>
    <text x="1020" y="162.0" fill="#f8fafc" class="val-text">5.7%</text>
    <text x="1062" y="162.0" class="lbl-text">vs BR:</text>
    <text x="1094" y="162.0" fill="#22c55e" class="val-text">58.4%</text>
  </g>
  <g filter="url(#shadow)">
    <rect x="970" y="182.0" width="180" height="44" rx="6" fill="#1e293b" stroke="#334155" stroke-width="1"/>
    <rect x="970" y="182.0" width="4" height="44" rx="2" fill="#22c55e"/>
    <text x="982" y="200.0" class="team-text">Bosnia and Herzegovina</text>
    <text x="982" y="218.0" class="lbl-text">Reach:</text>
    <text x="1020" y="218.0" fill="#f8fafc" class="val-text">0.6%</text>
    <text x="1062" y="218.0" class="lbl-text">vs BR:</text>
    <text x="1094" y="218.0" fill="#22c55e" class="val-text">77.5%</text>
  </g>
  <g filter="url(#shadow)">
    <rect x="970" y="238.0" width="180" height="44" rx="6" fill="#1e293b" stroke="#334155" stroke-width="1"/>
    <rect x="970" y="238.0" width="4" height="44" rx="2" fill="#22c55e"/>
    <text x="982" y="256.0" class="team-text">Canada</text>
    <text x="982" y="274.0" class="lbl-text">Reach:</text>
    <text x="1020" y="274.0" fill="#f8fafc" class="val-text">4.2%</text>
    <text x="1062" y="274.0" class="lbl-text">vs BR:</text>
    <text x="1094" y="274.0" fill="#22c55e" class="val-text">67.2%</text>
  </g>
  <g filter="url(#shadow)">
    <rect x="970" y="294.0" width="180" height="44" rx="6" fill="#1e293b" stroke="#334155" stroke-width="1"/>
    <rect x="970" y="294.0" width="4" height="44" rx="2" fill="#22c55e"/>
    <text x="982" y="312.0" class="team-text">Croatia</text>
    <text x="982" y="330.0" class="lbl-text">Reach:</text>
    <text x="1020" y="330.0" fill="#f8fafc" class="val-text">3.4%</text>
    <text x="1062" y="330.0" class="lbl-text">vs BR:</text>
    <text x="1094" y="330.0" fill="#22c55e" class="val-text">57.8%</text>
  </g>
  <g filter="url(#shadow)">
    <rect x="970" y="350.0" width="180" height="44" rx="6" fill="#1e293b" stroke="#334155" stroke-width="1"/>
    <rect x="970" y="350.0" width="4" height="44" rx="2" fill="#f43f5e"/>
    <text x="982" y="368.0" class="team-text">France</text>
    <text x="982" y="386.0" class="lbl-text">Reach:</text>
    <text x="1020" y="386.0" fill="#f8fafc" class="val-text">30.5%</text>
    <text x="1062" y="386.0" class="lbl-text">vs BR:</text>
    <text x="1094" y="386.0" fill="#f43f5e" class="val-text">41.5%</text>
  </g>
  <g filter="url(#shadow)">
    <rect x="970" y="406.0" width="180" height="44" rx="6" fill="#1e293b" stroke="#334155" stroke-width="1"/>
    <rect x="970" y="406.0" width="4" height="44" rx="2" fill="#22c55e"/>
    <text x="982" y="424.0" class="team-text">Morocco</text>
    <text x="982" y="442.0" class="lbl-text">Reach:</text>
    <text x="1020" y="442.0" fill="#f8fafc" class="val-text">9.5%</text>
    <text x="1062" y="442.0" class="lbl-text">vs BR:</text>
    <text x="1094" y="442.0" fill="#22c55e" class="val-text">59.5%</text>
  </g>
  <g filter="url(#shadow)">
    <rect x="970" y="462.0" width="180" height="44" rx="6" fill="#1e293b" stroke="#334155" stroke-width="1"/>
    <rect x="970" y="462.0" width="4" height="44" rx="2" fill="#22c55e"/>
    <text x="982" y="480.0" class="team-text">Paraguay</text>
    <text x="982" y="498.0" class="lbl-text">Reach:</text>
    <text x="1020" y="498.0" fill="#f8fafc" class="val-text">3.7%</text>
    <text x="1062" y="498.0" class="lbl-text">vs BR:</text>
    <text x="1094" y="498.0" fill="#22c55e" class="val-text">67.0%</text>
  </g>
  <g filter="url(#shadow)">
    <rect x="970" y="518.0" width="180" height="44" rx="6" fill="#1e293b" stroke="#334155" stroke-width="1"/>
    <rect x="970" y="518.0" width="4" height="44" rx="2" fill="#22c55e"/>
    <text x="982" y="536.0" class="team-text">Portugal</text>
    <text x="982" y="554.0" class="lbl-text">Reach:</text>
    <text x="1020" y="554.0" fill="#f8fafc" class="val-text">7.8%</text>
    <text x="1062" y="554.0" class="lbl-text">vs BR:</text>
    <text x="1094" y="554.0" fill="#22c55e" class="val-text">50.3%</text>
  </g>
  <g filter="url(#shadow)">
    <rect x="970" y="574.0" width="180" height="44" rx="6" fill="#1e293b" stroke="#334155" stroke-width="1"/>
    <rect x="970" y="574.0" width="4" height="44" rx="2" fill="#22c55e"/>
    <text x="982" y="592.0" class="team-text">Senegal</text>
    <text x="982" y="610.0" class="lbl-text">Reach:</text>
    <text x="1020" y="610.0" fill="#f8fafc" class="val-text">3.4%</text>
    <text x="1062" y="610.0" class="lbl-text">vs BR:</text>
    <text x="1094" y="610.0" fill="#22c55e" class="val-text">63.4%</text>
  </g>
  <g filter="url(#shadow)">
    <rect x="970" y="630.0" width="180" height="44" rx="6" fill="#1e293b" stroke="#334155" stroke-width="1"/>
    <rect x="970" y="630.0" width="4" height="44" rx="2" fill="#f43f5e"/>
    <text x="982" y="648.0" class="team-text">Spain</text>
    <text x="982" y="666.0" class="lbl-text">Reach:</text>
    <text x="1020" y="666.0" fill="#f8fafc" class="val-text">26.8%</text>
    <text x="1062" y="666.0" class="lbl-text">vs BR:</text>
    <text x="1094" y="666.0" fill="#f43f5e" class="val-text">34.5%</text>
  </g>
  <g filter="url(#shadow)">
    <rect x="970" y="686.0" width="180" height="44" rx="6" fill="#1e293b" stroke="#334155" stroke-width="1"/>
    <rect x="970" y="686.0" width="4" height="44" rx="2" fill="#22c55e"/>
    <text x="982" y="704.0" class="team-text">USA</text>
    <text x="982" y="722.0" class="lbl-text">Reach:</text>
    <text x="1020" y="722.0" fill="#f8fafc" class="val-text">2.8%</text>
    <text x="1062" y="722.0" class="lbl-text">vs BR:</text>
    <text x="1094" y="722.0" fill="#22c55e" class="val-text">66.4%</text>
  </g>
  <g filter="url(#shadow)">
    <rect x="730" y="182.0" width="180" height="44" rx="6" fill="#1e293b" stroke="#334155" stroke-width="1"/>
    <rect x="730" y="182.0" width="4" height="44" rx="2" fill="#22c55e"/>
    <text x="742" y="200.0" class="team-text">Algeria</text>
    <text x="742" y="218.0" class="lbl-text">Reach:</text>
    <text x="780" y="218.0" fill="#f8fafc" class="val-text">4.4%</text>
    <text x="822" y="218.0" class="lbl-text">vs BR:</text>
    <text x="854" y="218.0" fill="#22c55e" class="val-text">68.6%</text>
  </g>
  <g filter="url(#shadow)">
    <rect x="730" y="238.0" width="180" height="44" rx="6" fill="#1e293b" stroke="#334155" stroke-width="1"/>
    <rect x="730" y="238.0" width="4" height="44" rx="2" fill="#f43f5e"/>
    <text x="742" y="256.0" class="team-text">Argentina</text>
    <text x="742" y="274.0" class="lbl-text">Reach:</text>
    <text x="780" y="274.0" fill="#f8fafc" class="val-text">42.6%</text>
    <text x="822" y="274.0" class="lbl-text">vs BR:</text>
    <text x="854" y="274.0" fill="#f43f5e" class="val-text">39.0%</text>
  </g>
  <g filter="url(#shadow)">
    <rect x="730" y="294.0" width="180" height="44" rx="6" fill="#1e293b" stroke="#334155" stroke-width="1"/>
    <rect x="730" y="294.0" width="4" height="44" rx="2" fill="#22c55e"/>
    <text x="742" y="312.0" class="team-text">Australia</text>
    <text x="742" y="330.0" class="lbl-text">Reach:</text>
    <text x="780" y="330.0" fill="#f8fafc" class="val-text">6.4%</text>
    <text x="822" y="330.0" class="lbl-text">vs BR:</text>
    <text x="854" y="330.0" fill="#22c55e" class="val-text">65.4%</text>
  </g>
  <g filter="url(#shadow)">
    <rect x="730" y="350.0" width="180" height="44" rx="6" fill="#1e293b" stroke="#334155" stroke-width="1"/>
    <rect x="730" y="350.0" width="4" height="44" rx="2" fill="#22c55e"/>
    <text x="742" y="368.0" class="team-text">Cape Verde</text>
    <text x="742" y="386.0" class="lbl-text">Reach:</text>
    <text x="780" y="386.0" fill="#f8fafc" class="val-text">1.9%</text>
    <text x="822" y="386.0" class="lbl-text">vs BR:</text>
    <text x="854" y="386.0" fill="#22c55e" class="val-text">76.7%</text>
  </g>
  <g filter="url(#shadow)">
    <rect x="730" y="406.0" width="180" height="44" rx="6" fill="#1e293b" stroke="#334155" stroke-width="1"/>
    <rect x="730" y="406.0" width="4" height="44" rx="2" fill="#22c55e"/>
    <text x="742" y="424.0" class="team-text">Colombia</text>
    <text x="742" y="442.0" class="lbl-text">Reach:</text>
    <text x="780" y="442.0" fill="#f8fafc" class="val-text">23.2%</text>
    <text x="822" y="442.0" class="lbl-text">vs BR:</text>
    <text x="854" y="442.0" fill="#22c55e" class="val-text">51.2%</text>
  </g>
  <g filter="url(#shadow)">
    <rect x="730" y="462.0" width="180" height="44" rx="6" fill="#1e293b" stroke="#334155" stroke-width="1"/>
    <rect x="730" y="462.0" width="4" height="44" rx="2" fill="#22c55e"/>
    <text x="742" y="480.0" class="team-text">Egypt</text>
    <text x="742" y="498.0" class="lbl-text">Reach:</text>
    <text x="780" y="498.0" fill="#f8fafc" class="val-text">5.8%</text>
    <text x="822" y="498.0" class="lbl-text">vs BR:</text>
    <text x="854" y="498.0" fill="#22c55e" class="val-text">66.4%</text>
  </g>
  <g filter="url(#shadow)">
    <rect x="730" y="518.0" width="180" height="44" rx="6" fill="#1e293b" stroke="#334155" stroke-width="1"/>
    <rect x="730" y="518.0" width="4" height="44" rx="2" fill="#22c55e"/>
    <text x="742" y="536.0" class="team-text">Ghana</text>
    <text x="742" y="554.0" class="lbl-text">Reach:</text>
    <text x="780" y="554.0" fill="#f8fafc" class="val-text">1.6%</text>
    <text x="822" y="554.0" class="lbl-text">vs BR:</text>
    <text x="854" y="554.0" fill="#22c55e" class="val-text">77.5%</text>
  </g>
  <g filter="url(#shadow)">
    <rect x="730" y="574.0" width="180" height="44" rx="6" fill="#1e293b" stroke="#334155" stroke-width="1"/>
    <rect x="730" y="574.0" width="4" height="44" rx="2" fill="#22c55e"/>
    <text x="742" y="592.0" class="team-text">Switzerland</text>
    <text x="742" y="610.0" class="lbl-text">Reach:</text>
    <text x="780" y="610.0" fill="#f8fafc" class="val-text">14.1%</text>
    <text x="822" y="610.0" class="lbl-text">vs BR:</text>
    <text x="854" y="610.0" fill="#22c55e" class="val-text">57.0%</text>
  </g>
  <g filter="url(#shadow)">
    <rect x="490" y="294.0" width="180" height="44" rx="6" fill="#1e293b" stroke="#334155" stroke-width="1"/>
    <rect x="490" y="294.0" width="4" height="44" rx="2" fill="#22c55e"/>
    <text x="502" y="312.0" class="team-text">DR Congo</text>
    <text x="502" y="330.0" class="lbl-text">Reach:</text>
    <text x="540" y="330.0" fill="#f8fafc" class="val-text">9.2%</text>
    <text x="582" y="330.0" class="lbl-text">vs BR:</text>
    <text x="614" y="330.0" fill="#22c55e" class="val-text">70.3%</text>
  </g>
  <g filter="url(#shadow)">
    <rect x="490" y="350.0" width="180" height="44" rx="6" fill="#1e293b" stroke="#334155" stroke-width="1"/>
    <rect x="490" y="350.0" width="4" height="44" rx="2" fill="#22c55e"/>
    <text x="502" y="368.0" class="team-text">Ecuador</text>
    <text x="502" y="386.0" class="lbl-text">Reach:</text>
    <text x="540" y="386.0" fill="#f8fafc" class="val-text">18.8%</text>
    <text x="582" y="386.0" class="lbl-text">vs BR:</text>
    <text x="614" y="386.0" fill="#22c55e" class="val-text">58.1%</text>
  </g>
  <g filter="url(#shadow)">
    <rect x="490" y="406.0" width="180" height="44" rx="6" fill="#1e293b" stroke="#334155" stroke-width="1"/>
    <rect x="490" y="406.0" width="4" height="44" rx="2" fill="#f43f5e"/>
    <text x="502" y="424.0" class="team-text">England</text>
    <text x="502" y="442.0" class="lbl-text">Reach:</text>
    <text x="540" y="442.0" fill="#f8fafc" class="val-text">44.8%</text>
    <text x="582" y="442.0" class="lbl-text">vs BR:</text>
    <text x="614" y="442.0" fill="#f43f5e" class="val-text">45.4%</text>
  </g>
  <g filter="url(#shadow)">
    <rect x="490" y="462.0" width="180" height="44" rx="6" fill="#1e293b" stroke="#334155" stroke-width="1"/>
    <rect x="490" y="462.0" width="4" height="44" rx="2" fill="#22c55e"/>
    <text x="502" y="480.0" class="team-text">Mexico</text>
    <text x="502" y="498.0" class="lbl-text">Reach:</text>
    <text x="540" y="498.0" fill="#f8fafc" class="val-text">27.2%</text>
    <text x="582" y="498.0" class="lbl-text">vs BR:</text>
    <text x="614" y="498.0" fill="#22c55e" class="val-text">52.6%</text>
  </g>
  <g filter="url(#shadow)">
    <rect x="250" y="378.0" width="180" height="44" rx="6" fill="#1e293b" stroke="#334155" stroke-width="1"/>
    <rect x="250" y="378.0" width="4" height="44" rx="2" fill="#22c55e"/>
    <text x="262" y="396.0" class="team-text">Norway</text>
    <text x="262" y="414.0" class="lbl-text">Reach:</text>
    <text x="300" y="414.0" fill="#f8fafc" class="val-text">100.0%</text>
    <text x="342" y="414.0" class="lbl-text">vs BR:</text>
    <text x="374" y="414.0" fill="#22c55e" class="val-text">56.6%</text>
  </g>
  <!-- Legend Box -->
  <g filter="url(#shadow)">
    <rect x="40" y="480" width="180" height="220" rx="8" fill="#1e293b" stroke="#334155" stroke-width="1.5"/>
    <text x="55" y="510" class="legend-title">DIAGRAM LEGEND</text>
    <line x1="55" y1="522" x2="205" y2="522" stroke="#334155" stroke-width="1"/>
    <text x="55" y="545" class="team-text">Reach:</text>
    <text x="55" y="562" class="legend-text">Probability of the opponent</text>
    <text x="55" y="578" class="legend-text">reaching this stage of the</text>
    <text x="55" y="594" class="legend-text">tournament (from 100k MC</text>
    <text x="55" y="610" class="legend-text">simulations).</text>
    <text x="55" y="635" class="team-text">vs BR:</text>
    <text x="55" y="652" class="legend-text">Brazil's win probability in</text>
    <text x="55" y="668" class="legend-text">a head-to-head matchup</text>
    <text x="55" y="684" class="legend-text">(from 5k MCMC simulations).</text>
  </g>
</svg>